<svg width="81" height="80" viewBox="0 0 81 80" fill="none" xmlns="http://www.w3.org/2000/svg">
    <path fill-rule="evenodd" clip-rule="evenodd" d="M49.7103 11.9868C53.2654 11.2153 57.0777 11.3149 60.5034 12.6172C62.8903 13.5464 64.9842 15.0989 66.5668 17.1129C67.32 18.0701 67.4162 19.3525 67.466 20.5303C67.4992 23.329 66.9418 26.0978 66.2284 28.7919C64.8681 33.7787 62.801 38.5564 60.2031 43.0057C59.948 43.4442 59.666 43.8663 59.3587 44.2699L59.2625 43.7755C59.586 42.9178 60.0588 42.1099 60.2413 41.2008C60.8916 38.6344 60.3408 35.9917 60.1069 33.4087C59.8614 30.9701 60.6842 28.5978 60.6643 26.1658C60.7589 24.9746 60.2927 23.8482 59.8382 22.7782C58.2008 19.0754 55.5929 15.7791 52.2501 13.5163C51.4356 12.9506 50.5232 12.5541 49.7103 11.9868Z" fill="#326690"/>
    <path fill-rule="evenodd" clip-rule="evenodd" d="M39.8312 12.3252C44.2059 11.7628 48.8012 12.9805 52.2767 15.7459C55.15 18.0402 57.4194 21.1491 58.642 24.6445C56.6098 24.5732 54.3039 24.4886 52.6599 25.9169C51.1701 27.1877 50.9777 29.3559 51.3128 31.1791C52.0925 35.5106 54.6174 39.1918 56.4837 43.087C56.9798 44.0011 57.6467 44.7974 58.2787 45.6169C57.5239 46.0035 56.6828 46.3701 56.2548 47.1564C55.505 48.3791 55.7671 49.8705 55.5829 51.2291C55.1516 55.0348 54.7269 58.8454 54.1131 62.6261C53.8228 64.4393 53.063 66.3654 51.3676 67.2678C49.634 68.1604 47.6183 68.7194 45.6674 68.4175C43.8144 68.0874 42.6481 66.3438 42.1239 64.6417C41.739 63.215 41.6992 61.727 41.5897 60.2604C41.4182 56.7168 41.3849 53.1678 41.4902 49.6216C41.5682 48.2364 40.8648 46.7948 39.6438 46.1212C39.0515 45.7861 38.3598 45.7397 37.6978 45.6866C38.2171 43.082 39.7864 40.8309 40.3239 38.2296C41.0224 35.0113 40.6375 31.6602 39.9225 28.48C39.5741 26.894 38.3797 25.4906 36.7904 25.1057C34.3451 24.4819 31.8782 25.4508 29.6901 26.4826C29.9655 22.8893 30.9177 19.2115 33.0943 16.2934C33.8964 15.217 34.9053 14.3116 36.0618 13.6302C37.2184 12.9488 38.501 12.5051 39.8312 12.3252Z" fill="#326690"/>
    <path fill-rule="evenodd" clip-rule="evenodd" d="M21.1864 12.6238C25.0816 11.8656 29.0763 12.6686 32.8156 13.8215C31.1504 15.6524 29.8949 17.8174 29.1327 20.172C28.1125 23.3273 27.6463 26.685 27.8885 29.9996C28.0396 32.3348 27.959 34.6793 27.648 36.9987C27.2448 40.0229 28.4443 43.1351 30.6672 45.1773C29.1543 46.9656 27.5501 48.6727 26.0836 50.5025C25.4366 51.2739 24.5623 52.1913 23.4591 51.9624C22.1685 51.5841 21.3473 50.393 20.629 49.3246C18.688 46.1826 17.5151 42.6358 16.4434 39.1138C15.2424 34.9466 14.2287 30.7113 13.6464 26.4063C13.3561 23.1315 13.537 19.6179 15.1959 16.7015C16.4368 14.4917 18.7543 13.085 21.1864 12.6238ZM54.4482 27.7335C53.9705 28.1316 54.4864 28.7222 54.8962 28.9096C55.8915 29.5002 57.2519 28.6741 57.285 27.5261C56.3892 27.1047 55.2611 27.1462 54.4482 27.7335ZM53.919 27.1926C55.3524 26.1641 57.227 26.393 58.8843 26.4959C58.8129 28.8118 58.1062 31.0812 58.3368 33.4137C58.5442 36.2969 59.372 39.3958 58.0266 42.1315C56.2233 38.5033 53.8908 35.0395 53.078 30.9999C52.8474 29.7126 52.7893 28.0851 53.919 27.1926Z" fill="#326690"/>
    <path fill-rule="evenodd" clip-rule="evenodd" d="M34.6753 27.7998C34.3999 27.8994 34.1112 28.0885 34.1676 28.4269C34.365 29.5799 35.8929 30.2816 36.8551 29.5633C37.2798 29.3228 37.7261 28.6559 37.2367 28.2544C36.5399 27.6821 35.523 27.5692 34.6753 27.7998ZM29.6254 28.6841C31.4221 27.5095 33.524 26.5905 35.6988 26.7165C36.8269 26.7663 37.8671 27.5709 38.1375 28.6924C39.1262 32.6738 39.4315 37.0999 37.5386 40.869C36.8868 42.3259 36.3326 43.8244 35.8797 45.3548C32.731 45.388 30.0518 42.6972 29.4944 39.6679C29.1128 37.9543 29.6105 36.2306 29.6686 34.5136C29.8013 32.5726 29.6636 30.6267 29.6254 28.6841ZM58.0067 47.8067C58.4729 47.46 59.1348 47.1398 59.6756 47.5197C61.9683 48.7391 64.6325 48.1435 67.0712 47.8465C65.5815 49.3097 63.5177 49.9965 61.4888 50.2188C60.1451 50.3798 58.7499 50.4279 57.4526 49.9783C57.4592 49.2368 57.4194 48.3575 58.0067 47.8067ZM34.9208 50.6469C36.238 49.9319 36.7589 48.3542 37.9898 47.5446C39.3286 47.3522 40.3091 49.3645 39.2954 50.3167C37.318 53.0241 33.3597 53.5417 30.5014 52.0686C31.9115 51.4067 33.5605 51.4581 34.9208 50.6469Z" fill="#326690"/>
</svg>
